<?xml version="1.0" standalone="no"?>
<!DOCTYPE svg PUBLIC "-//W3C//DTD SVG 20010904//EN"
 "http://www.w3.org/TR/2001/REC-SVG-20010904/DTD/svg10.dtd">
<svg version="1.0" xmlns="http://www.w3.org/2000/svg"
 width="1200.000000pt" height="1200.000000pt" viewBox="0 0 1200.000000 1200.000000"
 preserveAspectRatio="xMidYMid meet">

<g transform="translate(0.000000,1200.000000) scale(0.100000,-0.100000)"
fill="#FF0000" stroke="none">
<path d="M4300 8489 c-280 -27 -557 -110 -785 -236 -395 -219 -700 -572 -869
-1005 -100 -254 -139 -468 -140 -748 -1 -649 241 -1169 791 -1700 256 -248
494 -432 1218 -945 529 -375 790 -583 1043 -829 144 -140 332 -359 407 -473
15 -24 31 -43 35 -43 4 0 23 24 42 53 104 157 336 411 542 596 251 224 465
387 1021 781 586 414 856 626 1091 853 475 458 707 882 786 1432 21 148 16
447 -11 598 -142 814 -687 1418 -1451 1612 -240 60 -571 79 -770 42 -416 -77
-792 -330 -1090 -732 -37 -49 -86 -123 -110 -162 -24 -40 -46 -73 -50 -73 -4
0 -26 33 -50 73 -101 169 -261 363 -410 494 -366 325 -766 457 -1240 412z"/>
</g>
</svg>
